# xmcd CD database file
#
# Track frame offsets:
#	150
#	16115
#	25988
#	41416
#	59296
#	68667
#	80737
#	89231
#	102797
#	116341
#	126114
#	141363
#	152325
#	167578
#	179233
#	188477
#	199119
#	206619
#	220102
#	234459
#	246892
#	258258
#	272450
#	285457
#	303050
#	316243
#	328472
#
# Disc length: 4612 seconds
#
# Revision: 5
# Processed by: cddbd v1.5.2PL0 Copyright (c) Steve Scherf et al.
# Submitted via: CDex 1.79
#
DISCID=7a12021b
DTITLE=Michal Tucny - No. 55 - disc 1
DYEAR=2002
DGENRE=Country
TTITLE0=Bajecna zenska
TTITLE1=Cesty toulavy
TTITLE2=Jak chcete zit bez koni
TTITLE3=Vsichni jsou uz v Mexiku
TTITLE4=Blues folsomske veznice
TTITLE5=Rad se brouzdam rosou
TTITLE6=Delame co muzem
TTITLE7=Blizko Little Big Hornu
TTITLE8=Medicinman
TTITLE9=Ja budu zit naveky
TTITLE10=El Paso
TTITLE11=Waterloo
TTITLE12=Stary dobry western
TTITLE13=Posledni kovboj
TTITLE14=Tenhle druh pisni
TTITLE15=Sundej z hodin zavazi
TTITLE16=Slapej dal
TTITLE17=Kosmickej vandr
TTITLE18=Tri kamaradi
TTITLE19=Jeste dlouhou cestu mam
TTITLE20=Az prijde ten den
TTITLE21=Koukam, jak cela zeme vstava
TTITLE22=Viva Las Vegas
TTITLE23=Staryho psa novym kouskum nenaucis
TTITLE24=Vanek s vuni burcaku
TTITLE25=Jizansky rok
TTITLE26=Len chciet - Vzdyt vis
EXTD=YEAR: 2002
EXTT0=
EXTT1=
EXTT2=
EXTT3=
EXTT4=
EXTT5=
EXTT6=
EXTT7=
EXTT8=
EXTT9=
EXTT10=
EXTT11=
EXTT12=
EXTT13=
EXTT14=
EXTT15=
EXTT16=
EXTT17=
EXTT18=
EXTT19=
EXTT20=
EXTT21=
EXTT22=
EXTT23=
EXTT24=
EXTT25=
EXTT26=
PLAYORDER=
